<svg width="221" height="83" xmlns="http://www.w3.org/2000/svg" xmlns:xlink="http://www.w3.org/1999/xlink" xml:space="preserve" overflow="hidden"><g transform="translate(-81 -515)"><path d="M9.31902 12.6158C11.1731 12.6158 12.7623 11.1151 12.7623 9.26134 12.7623 7.3193 11.1731 5.8186 9.31902 5.8186 7.46494 5.8186 5.87578 7.31924 5.87578 9.26134 5.87578 11.1151 7.46494 12.6158 9.31902 12.6158" fill="#FFC700" transform="matrix(1 0 0 1.00151 81 515)"/><path d="M53.8168 5.81838C51.7862 5.81838 50.3733 7.23156 50.3733 9.26189L50.3733 33.2713C50.3733 38.3913 52.5823 43.1594 56.6434 46.4258 59.7341 49.074 63.3513 50.3096 67.1481 50.3096L67.2376 50.3096C69.1796 50.3096 70.5913 48.8964 70.5913 46.8661 70.5913 44.9241 69.3581 43.6889 67.3271 43.6889 65.2083 43.6889 62.9126 42.8059 60.97 41.1287 58.586 39.1866 57.2628 36.361 57.2628 33.2716L57.2628 23.8272 64.1497 23.8272C66.0039 23.8272 67.4166 22.3271 67.4166 20.4733 67.4166 18.6196 66.0039 17.2065 64.1497 17.2065L57.2628 17.2065 57.2628 9.26206C57.2628 7.23173 55.85 5.81854 53.8193 5.81854ZM132.924 5.81838C130.981 5.81838 129.567 7.23156 129.567 9.26189L129.567 33.2713C129.567 38.3913 131.776 43.1594 135.838 46.4258 138.928 49.074 142.457 50.3096 146.342 50.3096 148.373 50.3096 149.786 48.8964 149.786 46.8661 149.786 44.9241 148.461 43.6889 146.519 43.6889 144.311 43.6889 142.104 42.8059 140.162 41.1287 137.778 39.1866 136.365 36.361 136.365 33.2716L136.365 23.8272 143.252 23.8272C145.106 23.8272 146.519 22.4154 146.519 20.4733 146.519 18.5313 145.106 17.2065 143.252 17.2065L136.365 17.2065 136.365 9.26206C136.365 7.23173 134.955 5.81854 132.924 5.81854ZM190.224 5.81838C188.193 5.81838 186.78 7.23156 186.78 9.26189L186.78 47.1297C186.78 49.0717 188.193 50.4862 190.224 50.4862 192.166 50.4862 193.58 49.0717 193.58 47.1297L193.58 37.8621C193.58 37.3324 193.844 36.8916 194.197 36.5385 194.904 35.8323 196.052 36.0076 196.67 36.6254L209.381 49.3368C210 50.043 211.061 50.4865 212.032 50.4865 214.062 50.4865 215.475 49.0719 215.475 47.1299 215.475 46.0706 215.033 45.0136 214.239 44.2191L201.084 31.0646 211.148 22.4135C211.854 21.7956 212.295 20.7374 212.295 19.7663 212.295 17.736 210.883 16.3228 208.852 16.3228 207.88 16.3228 206.823 16.765 206.028 17.5595L193.58 28.1509 193.58 9.26206C193.58 7.23173 192.166 5.81854 190.224 5.81854ZM9.31846 15.8827C7.28781 15.8827 5.87495 17.2932 5.87495 19.3235L5.87495 41.5694C5.87495 46.5128 9.93633 50.4867 14.7923 50.4867 19.5599 50.4867 23.5317 46.7793 23.7964 42.0125L23.7964 30.7117C23.7964 25.9448 26.9759 22.7673 31.7436 22.7673 36.4229 22.7673 39.688 25.9447 39.688 30.7117L39.688 47.0436C39.688 49.0739 41.0138 50.4871 43.0445 50.4871 45.0752 50.4871 46.488 49.0739 46.488 47.0436L46.488 30.2719C46.488 21.9739 40.3961 16.1472 31.7434 16.1472 23.0029 16.1472 16.9094 21.9739 16.9094 30.2719L16.9094 41.5699 16.9984 41.6595C16.9108 42.8071 15.9379 43.6898 14.8784 43.6898 13.7307 43.6898 12.8469 42.8058 12.7586 41.7466L12.7586 19.3245C12.7586 17.2941 11.3484 15.8837 9.31769 15.8837ZM87.1878 16.323C82.0672 16.323 77.3003 18.618 74.0333 22.5906 68.0299 30.0057 69.0006 40.422 76.4168 46.5133 79.507 48.985 83.3927 50.3971 87.2773 50.3971 88.1602 50.3971 88.9547 50.3087 89.8376 50.2204 90.4558 50.1322 91.3382 49.8692 92.0448 48.9865 93.1924 47.5741 93.0172 45.3656 91.6045 44.1297 90.9863 43.6883 90.3658 43.5127 89.5713 43.5127L88.9542 43.5127C88.4249 43.601 87.8939 43.6894 87.3646 43.6894 81.3611 43.6894 76.8599 39.0112 76.8599 33.3616 76.8599 27.7117 81.4484 23.0309 87.1878 23.0309 91.7785 23.0309 95.6643 26.121 96.9886 30.3582L87.1011 30.3582C85.4237 30.3582 84.0977 31.6842 84.0977 33.3614 84.0977 35.1269 85.4237 36.4489 87.1011 36.4489L100.169 36.4489C101.581 36.4489 102.817 35.8328 103.435 35.0383 103.965 34.4204 104.229 33.5375 104.229 32.6547 103.964 27.7996 101.67 23.2965 97.9616 20.2069 94.8714 17.647 91.0724 16.3231 87.1878 16.3231ZM166.206 16.323C161.174 16.323 156.408 18.618 153.141 22.5906 147.05 30.0057 148.109 40.422 155.525 46.5133 158.527 48.985 162.41 50.3971 166.383 50.3971 167.177 50.3971 168.062 50.3087 168.856 50.2204 169.562 50.1322 170.443 49.8692 171.15 48.9865 172.298 47.5741 172.035 45.3656 170.622 44.1297 170.093 43.6883 169.385 43.5127 168.679 43.5127L167.973 43.5127C167.531 43.601 167.002 43.6894 166.472 43.6894 160.469 43.6894 155.965 39.0112 155.965 33.3616 155.965 27.7117 160.555 23.0309 166.206 23.0309 170.885 23.0309 174.772 26.121 176.097 30.3582L166.206 30.3582C164.528 30.3582 163.116 31.6842 163.116 33.3614 163.116 35.1269 164.442 36.4489 166.119 36.4489L179.274 36.4489C180.686 36.4489 181.834 35.8328 182.54 35.0383 183.07 34.4204 183.334 33.5375 183.334 32.6547 183.069 27.7996 180.774 23.2965 176.977 20.2069 173.887 17.647 170.179 16.3231 166.206 16.3231ZM123.74 16.94C118.619 16.94 113.852 19.235 110.585 23.2075 108.025 26.2972 106.701 30.0928 106.701 34.0653L106.701 47.0429C106.701 49.0733 108.112 50.4865 110.142 50.4865 112.172 50.4865 113.586 49.0733 113.586 47.0429L113.586 33.8885C113.586 31.5933 114.381 29.2996 115.882 27.5342 117.824 25.1507 120.649 23.827 123.739 23.827L123.826 23.827C124.62 23.827 125.415 23.5603 126.032 23.0307 126.739 22.4128 127.182 21.6183 127.359 20.8238 127.446 19.8528 127.181 18.9725 126.562 18.2663 125.679 17.207 124.533 16.9399 123.738 16.9399Z" fill="#130C0E" transform="matrix(1 0 0 1.00151 81 515)"/><path d="M152.965 73.7035 152.965 72.0261C152.965 71.8499 152.877 71.7615 152.701 71.7615L151.376 71.7615C151.199 71.7615 151.023 71.8499 151.023 72.0261L151.023 73.7035C151.023 73.8803 151.199 74.0565 151.376 74.0565L152.701 74.0565C152.877 74.0565 152.965 73.8803 152.965 73.7035M147.403 72.3792C147.05 72.4676 146.431 72.556 145.901 72.556 144.577 72.556 144.312 71.5847 144.312 70.3493L144.312 69.2012C144.312 67.9658 144.577 66.9945 145.901 66.9945 146.255 66.9945 146.961 67.0829 147.403 67.1713ZM149.345 73.3505 149.345 62.8458C149.345 62.669 149.257 62.4927 149.08 62.4927L147.668 62.4927C147.491 62.4927 147.403 62.669 147.403 62.8458L147.403 65.4939C146.784 65.4055 146.255 65.4055 145.901 65.4055 143.518 65.4055 142.282 66.8182 142.282 69.2017L142.282 70.3493C142.282 72.7328 143.518 74.145 145.901 74.145 146.873 74.145 148.021 73.9687 148.992 73.7919 149.345 73.7035 149.345 73.6151 149.345 73.3505M139.192 69.0249 136.013 69.0249C136.013 67.789 136.631 67.0829 137.602 67.0829 138.574 67.0829 139.192 67.789 139.192 69.0249M141.222 70.0846 141.222 69.2017C141.222 66.9945 139.898 65.4055 137.602 65.4055 135.307 65.4055 133.983 66.9066 133.983 69.2017L133.983 70.3493C133.983 73.3505 136.102 74.145 137.602 74.145 139.015 74.145 139.545 74.0565 140.605 73.8803 140.869 73.8803 140.869 73.7919 140.869 73.5273L140.869 72.4676C140.869 72.3797 140.781 72.2913 140.605 72.2913 139.898 72.3797 138.927 72.4676 137.779 72.4676 136.366 72.4676 135.925 71.4084 135.925 70.5255L135.925 70.4377 140.869 70.4377C141.134 70.4377 141.222 70.3493 141.222 70.0846M133.541 66.8182 133.541 65.6707C133.541 65.4939 133.365 65.4061 133.188 65.4061 132.658 65.4061 131.775 65.5823 131.069 66.1122L131.069 65.847C131.069 65.6707 130.892 65.4939 130.716 65.4939L129.479 65.4939C129.303 65.4939 129.126 65.6707 129.126 65.847L129.126 73.7035C129.126 73.8803 129.303 74.0571 129.479 74.0571L130.804 74.0571C130.981 74.0571 131.157 73.8803 131.157 73.7035L131.157 67.6127C131.775 67.3481 132.393 67.0834 133.188 67.0834 133.365 67.0834 133.541 66.995 133.541 66.8188M127.449 73.7041 127.449 65.8475C127.449 65.6707 127.362 65.4939 127.184 65.4939L125.772 65.4939C125.595 65.4939 125.507 65.6707 125.507 65.8475L125.507 71.8504C125.066 72.1151 124.359 72.4681 123.741 72.4681 123.3 72.4681 123.035 72.3797 122.858 72.2035 122.505 71.9383 122.505 71.4968 122.505 70.7907L122.505 65.8475C122.505 65.6707 122.328 65.4945 122.152 65.4945L120.827 65.4945C120.651 65.4945 120.474 65.6707 120.474 65.8475L120.474 70.7907C120.474 72.0267 120.651 72.9096 121.269 73.5273 121.71 73.9687 122.328 74.1455 123.123 74.1455 124.094 74.1455 124.713 73.8803 125.507 73.351L125.507 73.7041C125.507 73.8803 125.594 74.0571 125.772 74.0571L127.184 74.0571C127.361 74.0571 127.449 73.8803 127.449 73.7041M119.15 71.762C119.15 71.0554 118.974 70.2609 117.649 69.4669L115.707 68.3194C115.265 68.0542 115.089 67.8779 115.089 67.7011 115.089 67.1718 115.354 66.995 116.148 66.995 116.943 66.995 118.179 67.1718 118.62 67.1718L118.708 67.1718C118.796 67.1718 118.885 67.0834 118.885 66.9066L118.885 66.0243C118.885 65.8475 118.797 65.7591 118.62 65.6707 117.913 65.4945 117.207 65.4061 115.971 65.4061 114.029 65.4061 113.058 66.1122 113.058 67.7011 113.058 68.584 113.587 69.2901 114.382 69.7316L116.412 71.0559C116.942 71.3206 117.119 71.4968 117.119 71.762 117.119 72.2035 116.942 72.5565 116.059 72.5565 115.529 72.5565 114.205 72.4681 113.499 72.3797L113.411 72.3797C113.235 72.3797 113.146 72.4681 113.146 72.6449L113.146 73.5273C113.146 73.7041 113.234 73.7925 113.411 73.8803 114.294 74.0571 115.53 74.1455 116.148 74.1455 118.179 74.1455 119.15 73.0858 119.15 71.762M111.998 71.762C111.998 71.0559 111.822 70.2614 110.586 69.4669L108.555 68.3194C108.202 68.0542 107.937 67.8779 107.937 67.7011 107.937 67.1718 108.291 66.995 108.997 66.995 109.88 66.995 111.115 67.1718 111.557 67.1718 111.734 67.1718 111.822 67.0834 111.822 66.9066L111.822 66.0243C111.822 65.8475 111.734 65.7591 111.557 65.6713 110.762 65.4945 110.056 65.4061 108.82 65.4061 106.966 65.4061 105.995 66.1122 105.995 67.7011 105.995 68.584 106.525 69.2901 107.231 69.7316L109.35 71.0559C109.791 71.3206 109.968 71.4974 109.968 71.762 109.968 72.2035 109.88 72.5565 108.908 72.5565 108.467 72.5565 107.142 72.4681 106.348 72.3797 106.171 72.3797 106.083 72.4681 106.083 72.6449L106.083 73.5273C106.083 73.7041 106.171 73.7925 106.348 73.8803 107.231 74.0571 108.467 74.1455 109.085 74.1455 111.027 74.1455 111.998 73.0858 111.998 71.762M102.022 69.2017 99.3732 69.2017 100.433 64.7C100.521 64.5232 100.609 64.4353 100.698 64.4353 100.874 64.4353 100.874 64.5232 100.963 64.7ZM105.289 73.7925 105.289 73.7041 102.816 64.2585C102.463 62.8463 101.404 62.6695 100.698 62.6695 100.08 62.6695 99.0202 62.8463 98.5787 64.2585L96.1068 73.7041 96.1068 73.7925C96.1068 73.9687 96.1941 74.0571 96.3715 74.0571L97.9605 74.0571C98.1373 74.0571 98.2257 73.8809 98.3141 73.7925L99.0202 70.8791 102.463 70.8791 103.169 73.7925C103.169 73.8803 103.346 74.0571 103.435 74.0571L105.024 74.0571C105.2 74.0571 105.289 73.9687 105.289 73.7925M91.6924 73.7041 91.6924 72.0267C91.6924 71.8504 91.5156 71.762 91.3393 71.762L90.015 71.762C89.8382 71.762 89.7498 71.8504 89.7498 72.0267L89.7498 73.7041C89.7498 73.8809 89.8376 74.0571 90.015 74.0571L91.3393 74.0571C91.5156 74.0571 91.6924 73.8809 91.6924 73.7041M89.6619 65.7591C89.6619 65.5829 89.4851 65.4945 89.3967 65.4945L87.8077 65.4945C87.6309 65.4945 87.5425 65.5823 87.5425 65.7591L85.8651 72.2913 85.7773 72.2913C85.69 72.2913 85.601 72.2029 85.5126 71.9383L84.0115 65.7591C84.0115 65.6707 83.8353 65.4945 83.7468 65.4945L82.1579 65.4945C81.9811 65.4945 81.8927 65.5823 81.8927 65.7591L81.8927 65.8475 83.9236 72.8212C84.2767 73.9687 84.8065 74.0565 85.2474 74.0565L85.4242 74.0565 85.3364 74.498C85.0717 75.2925 84.8071 75.4693 84.1004 75.4693 83.7474 75.4693 82.8645 75.3809 82.4231 75.3809 82.2463 75.3809 82.07 75.4693 82.07 75.6455L82.07 76.6168C82.07 76.7936 82.2463 76.7936 82.4231 76.8815 82.7761 76.9699 83.4828 77.0583 84.012 77.0583 86.043 77.0583 86.6607 76.3522 87.1022 74.6748L89.663 65.8475 89.663 65.7591M81.4523 73.7919 81.4523 72.8212C81.4523 72.6444 81.3645 72.6444 81.1871 72.6444L80.3042 72.6444C79.7744 72.6444 79.7744 72.4681 79.7744 71.762L79.7744 66.995 81.0987 66.995C81.2755 66.995 81.4523 66.9066 81.4523 66.7298L81.4523 65.8475C81.4523 65.6707 81.2755 65.4945 81.0987 65.4945L79.7744 65.4945 79.7744 63.9055C79.7744 63.8171 79.6871 63.7287 79.5097 63.7287L79.4219 63.7287 78.0097 63.9933C77.9218 63.9933 77.7445 64.0817 77.7445 64.2585L77.7445 65.4945 76.3323 65.4945C76.1555 65.4945 75.9787 65.6707 75.9787 65.8475L75.9787 66.4652C75.9787 66.642 76.1555 66.7298 76.3323 66.8182L77.7445 66.995 77.7445 71.762C77.7445 73.7919 78.4511 74.145 80.1285 74.145 80.4816 74.145 80.8346 74.145 81.1877 74.0571 81.3645 74.0571 81.4529 73.9687 81.4529 73.7919M75.008 73.7041 75.008 65.8475C75.008 65.6707 74.8312 65.4945 74.6549 65.4945L73.3306 65.4945C73.1538 65.4945 72.977 65.6707 72.977 65.8475L72.977 73.7041C72.977 73.8803 73.1538 74.0571 73.3306 74.0571L74.6549 74.0571C74.8312 74.0571 75.008 73.8803 75.008 73.7041M75.008 64.0823 75.008 62.7579C75.008 62.5817 74.9201 62.4049 74.7428 62.4049L73.2422 62.4049C73.0654 62.4049 72.977 62.5817 72.977 62.7579L72.977 64.0823C72.977 64.2585 73.0648 64.3469 73.2422 64.3469L74.7428 64.3469C74.9196 64.3469 75.008 64.2585 75.008 64.0823M71.2112 73.7041 71.2112 62.8463C71.2112 62.6695 71.1239 62.4933 70.9465 62.4933L69.5338 62.4933C69.3575 62.4933 69.1807 62.6695 69.1807 62.8463L69.1807 73.7041C69.1807 73.8803 69.3575 74.0571 69.5338 74.0571L70.9465 74.0571C71.1233 74.0571 71.2112 73.8803 71.2112 73.7041M65.4724 72.1151C65.0309 72.3797 64.5011 72.5565 63.9718 72.5565 63.1773 72.5565 62.8237 72.3797 62.8237 71.6736L62.8237 71.5852C62.8237 70.7023 63.1773 70.2614 64.5011 70.2614L65.4724 70.2614ZM67.5033 73.7041 67.5033 68.3194C67.5033 66.3773 66.2669 65.4061 64.148 65.4061 63.0889 65.4061 62.206 65.4945 61.5877 65.6707 61.4109 65.6707 61.3231 65.7591 61.3231 65.9359L61.3231 66.9066C61.3231 67.1713 61.4104 67.1713 61.5877 67.1713L61.6767 67.1713C62.2065 67.0834 63.1778 67.0834 64.1486 67.0834 65.032 67.0834 65.4735 67.3481 65.4735 68.3194L65.4735 68.9371 64.5022 68.9371C61.8535 68.9371 60.7938 69.82 60.7938 71.5852L60.7938 71.6736C60.7938 73.7041 62.2065 74.145 63.4425 74.145 64.1486 74.145 64.8552 73.8803 65.5613 73.5273L65.5613 73.7041C65.5613 73.8803 65.7381 74.0571 65.9144 74.0571L67.1508 74.0571C67.3271 74.0571 67.5039 73.8803 67.5039 73.7041M59.4694 73.7041 59.4694 65.8475C59.4694 65.6707 59.3816 65.4945 59.2048 65.4945L57.7921 65.4945C57.6153 65.4945 57.4385 65.6707 57.4385 65.8475L57.4385 71.8504C57.0854 72.1151 56.2909 72.4681 55.7611 72.4681 55.3196 72.4681 55.055 72.3797 54.79 72.2035 54.5252 71.9383 54.5252 71.4974 54.5252 70.7907L54.5252 65.8475C54.5252 65.6707 54.3487 65.4945 54.172 65.4945L52.7593 65.4945C52.5828 65.4945 52.4945 65.6707 52.4945 65.8475L52.4945 70.7907C52.4945 72.0267 52.6711 72.9096 53.2009 73.5273 53.6423 73.9687 54.3487 74.1455 55.1432 74.1455 56.1141 74.1455 56.7324 73.8803 57.4385 73.351L57.4385 73.7041C57.4385 73.8803 57.6153 74.0571 57.7921 74.0571L59.2048 74.0571C59.381 74.0571 59.4694 73.8803 59.4694 73.7041M48.7863 69.4669C48.7863 71.409 48.0799 72.2913 46.579 72.2913 45.0782 72.2913 44.3718 71.409 44.3718 69.4669L44.3718 67.4365C44.3718 65.4061 45.0782 64.5232 46.579 64.5232 48.0799 64.5232 48.7863 65.4061 48.7863 67.4365ZM50.9051 69.4669 50.9051 67.4365C50.9051 64.0817 49.0512 62.6695 46.579 62.6695 44.1069 62.6695 42.2528 64.0817 42.2528 67.4365L42.2528 69.4669C42.2528 72.2913 43.5773 73.7041 45.6078 74.0571L45.6078 74.4101C45.6078 75.9991 46.579 76.529 48.0799 76.529 48.5214 76.529 49.2277 76.4406 49.4926 76.3522 49.7574 76.3522 49.8458 76.1759 49.8458 76.0875L49.8458 75.1162C49.8458 74.94 49.7581 74.8516 49.4926 74.8516L48.0799 74.8516C47.8151 74.8516 47.5502 74.7632 47.5502 74.4101L47.5502 74.0571C49.5808 73.7041 50.9051 72.2913 50.9051 69.4669M37.1319 73.7041 37.1319 62.8463C37.1319 62.6695 37.0442 62.4933 36.8671 62.4933L35.4544 62.4933C35.2778 62.4933 35.1012 62.6695 35.1012 62.8463L35.1012 73.7041C35.1012 73.8803 35.2778 74.0571 35.4544 74.0571L36.8671 74.0571C37.0436 74.0571 37.1319 73.8803 37.1319 73.7041M31.3931 72.1151C30.9515 72.3797 30.4219 72.5565 29.8038 72.5565 29.0975 72.5565 28.7444 72.3797 28.7444 71.6736L28.7444 71.5852C28.7444 70.7029 29.0975 70.2614 30.4219 70.2614L31.3931 70.2614ZM33.4237 73.7041 33.4237 68.3194C33.4237 66.3773 32.1876 65.4061 30.0687 65.4061 29.0092 65.4061 28.1262 65.4945 27.5083 65.6707 27.3317 65.6707 27.2434 65.7591 27.2434 65.9359L27.2434 66.9066C27.2434 67.1718 27.3311 67.1718 27.5083 67.1718L27.5959 67.1718C28.1256 67.0834 29.0969 67.0834 30.068 67.0834 30.9508 67.0834 31.3923 67.3481 31.3923 68.3194L31.3923 68.9371 30.4212 68.9371C27.7725 68.9371 26.713 69.82 26.713 71.5852L26.713 71.6736C26.713 73.7041 28.1256 74.1455 29.3617 74.1455 30.068 74.1455 30.7742 73.8803 31.4806 73.5273L31.4806 73.7041C31.4806 73.8803 31.6571 74.0571 31.8337 74.0571L33.0698 74.0571C33.2465 74.0571 33.423 73.8803 33.423 73.7041M26.0068 73.7919 26.0068 72.8212C26.0068 72.6444 25.9192 72.6444 25.6536 72.6444L24.8591 72.6444C24.3293 72.6444 24.3293 72.4681 24.3293 71.762L24.3293 66.995 25.6536 66.995C25.8302 66.995 25.9186 66.9066 25.9186 66.7298L25.9186 65.8475C25.9186 65.6707 25.8309 65.4945 25.6536 65.4945L24.3293 65.4945 24.3293 63.9055C24.3293 63.8171 24.1527 63.7287 24.0645 63.7287L23.9768 63.7287 22.5643 63.9933C22.3877 63.9933 22.2993 64.0817 22.2993 64.2585L22.2993 65.4945 20.8868 65.4945C20.7102 65.4945 20.5336 65.6707 20.5336 65.8475L20.5336 66.4652C20.5336 66.642 20.7102 66.7298 20.8868 66.8182L22.2993 66.995 22.2993 71.7615C22.2993 73.7919 23.0057 74.145 24.6832 74.145 25.0364 74.145 25.3895 74.145 25.7427 74.0571 25.9193 74.0571 26.0075 73.9687 26.0075 73.7919M18.2382 70.3493C18.2382 71.6736 17.6203 72.4681 16.5607 72.4681 15.5012 72.4681 14.9715 71.6736 14.9715 70.3493L14.9715 69.2017C14.9715 67.9658 15.5012 67.0829 16.5607 67.0829 17.6203 67.0829 18.2382 67.9658 18.2382 69.2017ZM20.1806 70.3493 20.1806 69.2017C20.1806 66.995 18.9446 65.4061 16.5607 65.4061 14.1769 65.4061 12.9409 66.995 12.9409 69.2017L12.9409 70.3493C12.9409 72.5565 14.1769 74.145 16.5607 74.145 18.9446 74.145 20.1806 72.5565 20.1806 70.3493M13.5588 64.2585 13.5588 63.111C13.5588 62.9347 13.3823 62.7579 13.2057 62.7579L5.78948 62.7579C5.70186 62.7579 5.52456 62.9347 5.52456 63.111L5.52456 64.2585C5.52456 64.4353 5.70114 64.5237 5.78948 64.5237L8.43817 64.5237 8.43817 73.7046C8.43817 73.8809 8.61475 74.0577 8.79132 74.0577L10.2922 74.0577C10.4689 74.0577 10.5571 73.8809 10.5571 73.7046L10.5571 64.5237 13.2057 64.5237C13.3823 64.5237 13.5589 64.4353 13.5589 64.2585" fill="#130C0E" transform="matrix(1 0 0 1.00151 81 515)"/></g></svg>